<svg width="55" height="56" viewBox="0 0 55 56" fill="none" xmlns="http://www.w3.org/2000/svg">
<path d="M50.3741 37.5083C49.8014 37.5083 49.2399 37.6125 48.7012 37.8095L26.5866 45.822L20.3075 43.263H22.7597C25.0858 43.263 27.1024 41.5956 27.4573 39.3957C27.6863 38.0407 27.3085 36.6628 26.4374 35.6325C25.5667 34.5906 24.2949 34 22.9429 34H3.97976C1.49316 34 0.324492 37.6472 0.0609466 41.0629C-0.316848 46.0532 1.03514 51.3678 4.86211 51.9706C25.934 56 26.3458 56 26.483 56C26.7465 56 27.0902 56 51.9662 46.4591C53.2379 45.9959 54.235 45.0001 54.7046 43.7267C55.1859 42.4528 55.0712 41.0405 54.4182 39.8358C53.6273 38.4003 52.0808 37.5086 50.3735 37.5086L50.3741 37.5083Z" fill="#007E9E"/>
<path d="M34 20C33.6876 20.031 33.4424 20.1335 33.2653 20.3065C33.0884 20.4798 33 20.6962 33 20.9538C33 21.2124 33.069 21.4157 33.2081 21.5664C33.3473 21.7168 33.6107 21.8618 34 22L34 20Z" fill="#007E9E"/>
<path d="M35.9999 25.5666C35.9999 25.1787 35.929 24.8696 35.7882 24.6416C35.6475 24.4151 35.3844 24.2007 35 24V27C35.3076 26.9446 35.5513 26.79 35.7308 26.5334C35.91 26.2791 36 25.9559 36 25.5666L35.9999 25.5666Z" fill="#007E9E"/>
<path d="M34.5 34C40.2866 34 45 29.2866 45 23.5C45 17.713 40.2866 13 34.5 13C28.7134 13 24 17.7134 24 23.5C24 29.2866 28.7134 34 34.5 34ZM31.7794 23.0268C31.2716 22.6015 31.0172 21.9701 31.0172 21.1327C31.0172 20.2969 31.3101 19.6118 31.8953 19.0803C32.4806 18.5475 33.2428 18.2572 34.181 18.2085V17.4836H35.1099V18.2242C36.1737 18.3008 37.18 18.6647 38.1284 19.3117L37.1847 20.6473C36.5465 20.1928 35.8547 19.9114 35.1099 19.8052V22.533H35.1535C36.2661 22.7941 37.0831 23.1483 37.6054 23.5922C38.128 24.0374 38.3891 24.6836 38.3891 25.53C38.3891 26.3768 38.0891 27.0653 37.4895 27.5981C36.8894 28.1292 36.0968 28.4199 35.1099 28.4682V29.5134H34.181V28.4542C32.8556 28.3184 31.6656 27.7915 30.6111 26.872L31.6703 25.6097C32.4832 26.316 33.3199 26.7374 34.181 26.872V24.0566C33.0875 23.7959 32.2873 23.4536 31.7795 23.027L31.7794 23.0268Z" fill="#007E9E"/>
<path d="M48 5C47.6874 5.01538 47.4424 5.06663 47.2654 5.15323C47.0885 5.23982 47 5.34799 47 5.47694C47 5.60642 47.069 5.70786 47.2081 5.78312C47.3471 5.85838 47.6106 5.93094 48 6L48 5Z" fill="#007E9E"/>
<path d="M48 14C51.8614 14 55 10.8618 55 7C55 3.13856 51.8618 0 48 0C44.1386 0 41 3.13823 41 7C41.0004 10.8618 44.1387 14 48 14ZM46.2997 6.70458C45.9824 6.43884 45.8233 6.04401 45.8233 5.52096C45.8233 4.99835 46.0065 4.57053 46.3721 4.23833C46.7377 3.90572 47.2142 3.72376 47.8008 3.69372V3.24008H48.3814V3.70302C49.0462 3.75084 49.6749 3.97851 50.2678 4.38262L49.6784 5.2171C49.2793 4.93316 48.8468 4.75754 48.3818 4.69068V6.39559H48.4088C49.1041 6.55893 49.6149 6.78025 49.9415 7.05743C50.2682 7.33587 50.4311 7.73957 50.4311 8.26856C50.4311 8.79752 50.2436 9.22788 49.8687 9.56095C49.4938 9.89313 48.9983 10.0747 48.3817 10.1047V10.7581L47.8006 10.7585V10.0962C46.9721 10.0112 46.2286 9.68238 45.5697 9.1073L46.2315 8.31852C46.7397 8.75988 47.2624 9.02352 47.8006 9.1073V7.34823C47.1172 7.18531 46.617 6.97118 46.2997 6.70459L46.2997 6.70458Z" fill="#007E9E"/>
</svg>
