<svg width="55" height="56" viewBox="0 0 55 56" fill="none" xmlns="http://www.w3.org/2000/svg">
<path d="M27.9803 5C23.2382 5 19.4104 8.87029 19.4104 13.6639C19.4104 18.4576 23.2382 22.3279 27.9803 22.3279C32.7223 22.3279 36.5693 18.4576 36.5693 13.6639C36.5693 8.87029 32.7223 5 27.9803 5ZM27.8631 24.9909C15.8607 25.0675 6.20413 34.8297 6 46.8966L20.4062 46.7979V40.2655L20.4058 40.2651C20.4014 40.0122 20.5722 39.7902 20.8158 39.7325C20.855 39.7281 20.8942 39.7281 20.933 39.7325H35.0469C35.3371 39.7347 35.5715 39.9717 35.5737 40.2651V46.8173L50 46.975C49.8375 34.7867 39.9878 24.9351 27.8625 25.0107L27.8631 24.9909ZM21.4605 40.7979V54H34.5192V40.7979H21.4605ZM32.4309 43.4423L32.4304 43.4427C32.6627 43.4198 32.8823 43.5529 32.9716 43.7705C33.0614 43.9881 33.0004 44.2392 32.8208 44.3898L25.9111 51.1785C25.8052 51.2838 25.6606 51.3397 25.512 51.3323C25.3638 51.3248 25.2253 51.2547 25.1303 51.1393L23.1003 48.6135C23.0088 48.5011 22.9656 48.3567 22.98 48.2117C22.9944 48.0672 23.0645 47.9342 23.1761 47.8421C23.4075 47.6501 23.7491 47.6844 23.939 47.9188L25.5983 49.9711L32.0793 43.5965H32.0789C32.1521 43.5172 32.2475 43.4622 32.3525 43.4388C32.3778 43.4305 32.404 43.4238 32.4305 43.4194L32.4309 43.4423Z" fill="#007E9E"/>
</svg>
