<svg width="55" height="56" viewBox="0 0 55 56" fill="none" xmlns="http://www.w3.org/2000/svg">
<path d="M0.916734 31.862H6.41674C6.65982 31.862 6.89308 31.9637 7.06495 32.1447C7.23682 32.3258 7.3334 32.5715 7.3334 32.8275V34.7585H10.0834C10.5258 34.762 10.9006 35.1025 10.969 35.5624C11.6941 35.3038 12.3068 34.7797 12.6954 34.0852C13.5524 32.7464 14.9678 31.9231 16.5 31.8727C16.5552 31.8706 16.6093 31.8619 16.6649 31.8619H17.4167C17.6597 31.8619 17.893 31.9637 18.0649 32.1447C18.2367 32.3257 18.3333 32.5714 18.3333 32.8275V35.724H26.5833C27.3052 35.7025 28.0049 35.9874 28.5251 36.5154C29.0452 37.0434 29.3415 37.7692 29.3476 38.5301C29.3591 39.5473 28.8672 40.4973 28.0488 41.0374C28.4044 41.6797 28.508 42.443 28.3365 43.1645C28.1654 43.8861 27.7329 44.5085 27.1321 44.8995C27.4878 45.5417 27.5913 46.3051 27.4198 47.0266C27.2488 47.7482 26.8162 48.3706 26.2155 48.7616C26.4979 49.2749 26.6223 49.8676 26.5727 50.4586C26.4958 51.1926 26.1623 51.8706 25.6368 52.3595C25.1114 52.8487 24.4317 53.1138 23.7303 53.1034H16.0118H16.0122C15.0543 53.1047 14.1089 52.8728 13.2496 52.4263C12.5289 52.047 11.7756 51.7401 11 51.5099V52.1379C11 52.394 10.9034 52.6396 10.7316 52.8207C10.5597 53.0017 10.3264 53.1034 10.0833 53.1034H7.33334V55.0345C7.33334 55.2905 7.23676 55.5362 7.06489 55.7172C6.89301 55.8983 6.65975 56 6.41667 56H0.91667C0.67359 56 0.440327 55.8983 0.268455 55.7172C0.0965823 55.5362 2.17422e-06 55.2905 2.17422e-06 55.0345V32.8276C2.17422e-06 32.5715 0.0965802 32.3258 0.268455 32.1448C0.440329 31.9638 0.67359 31.8621 0.91667 31.8621L0.916734 31.862Z" fill="#007E9E"/>
<path d="M2.7501 11.5862H5.50011V10.6207C5.50011 10.3646 5.59669 10.1189 5.76856 9.93791C5.94044 9.75688 6.1737 9.65515 6.41678 9.65515H9.16678V23.1724H6.41678C6.1737 23.1724 5.94043 23.0707 5.76856 22.8896C5.59669 22.7086 5.50011 22.4629 5.50011 22.2069V21.2414H2.7501C2.50703 21.2414 2.27376 21.1396 2.10189 20.9586C1.93002 20.7776 1.83344 20.5319 1.83344 20.2758V12.5517C1.83344 12.2957 1.93002 12.05 2.10189 11.8689C2.27376 11.6879 2.50703 11.5862 2.7501 11.5862Z" fill="#007E9E"/>
<path d="M11.283 7.99185C11.461 7.80521 11.7065 7.70823 11.957 7.72504C19.6815 8.08194 32.7313 5.82931 40.3339 2.98926V29.8328C34.964 27.9755 29.4397 26.6587 23.8338 25.8996V33.7936H20.1672V32.828C20.1664 32.0599 19.8762 31.3237 19.361 30.7806C18.8454 30.2379 18.1464 29.9323 17.4171 29.9315H16.6654C16.6097 29.9315 16.5561 29.9405 16.5005 29.9422V25.153C14.8623 25.0651 13.3196 25.0393 11.9573 25.103C11.7068 25.1194 11.4617 25.0224 11.2833 24.8362C11.1028 24.6539 11.0005 24.4018 11.0005 24.1384V8.69012C11.0005 8.42676 11.1028 8.1746 11.2833 7.99227L11.283 7.99185ZM19.2502 20.2754C19.2502 20.8086 19.6607 21.241 20.1669 21.241C20.6731 21.241 21.0836 20.8086 21.0836 20.2754V12.5513C21.0836 12.0181 20.6731 11.5858 20.1669 11.5858C19.6607 11.5858 19.2502 12.0181 19.2502 12.5513V20.2754ZM15.5836 20.2754C15.5836 20.8086 15.994 21.241 16.5002 21.241C17.0064 21.241 17.4169 20.8086 17.4169 20.2754V12.5513C17.4169 12.0181 17.0064 11.5858 16.5002 11.5858C15.994 11.5858 15.5836 12.0181 15.5836 12.5513V20.2754Z" fill="#007E9E"/>
<path d="M42.1667 30.5754V0.965517C42.1667 0.709484 42.2633 0.46379 42.4352 0.282759C42.6071 0.101727 42.8403 0 43.0834 0H48.5834C48.8265 0 49.0598 0.101725 49.2316 0.282759C49.4035 0.463793 49.5001 0.709484 49.5001 0.965517V10.6207C51.4652 10.6207 53.2809 11.725 54.2631 13.5172C55.2456 15.3095 55.2456 17.5181 54.2631 19.3103C53.2809 21.1026 51.4652 22.2069 49.5001 22.2069V31.8621C49.5001 32.1181 49.4035 32.3638 49.2316 32.5448C49.0598 32.7259 48.8265 32.8276 48.5834 32.8276H43.0834C42.8403 32.8276 42.6071 32.7259 42.4352 32.5448C42.2633 32.3638 42.1667 32.1181 42.1667 31.8621V30.5754Z" fill="#007E9E"/>
</svg>
