<svg width="55" height="57" viewBox="0 0 55 57" fill="none" xmlns="http://www.w3.org/2000/svg">
<path d="M29.409 0.00194833C29.0983 0.0102993 28.7937 0.0695512 28.5131 0.176122L8.24712 8.07497C7.77888 8.18512 7.36886 8.41338 7.07928 8.72475C6.78921 9.03613 6.63514 9.4139 6.64015 9.8008V22.9119C6.6266 23.3911 6.85745 23.8544 7.28053 24.1972C7.70361 24.54 8.28326 24.7332 8.88855 24.7332C9.4933 24.7332 10.073 24.54 10.4961 24.1972C10.9191 23.8544 11.15 23.3911 11.1369 22.9119V12.6686L28.5135 19.4432H28.513C29.1413 19.6894 29.8786 19.6894 30.507 19.4432L51.1199 11.4052H51.1194C51.6233 11.208 52.0152 10.8684 52.219 10.4532C52.4222 10.0384 52.4222 9.57793 52.219 9.16315C52.0152 8.74799 51.6233 8.40838 51.1194 8.21114L30.5065 0.176692C30.1647 0.0462629 29.7873 -0.0133933 29.4084 0.00251842L29.409 0.00194833ZM15.1017 18.1859V19.6509C15.1017 25.9428 21.5688 31.067 29.5092 31.067C37.4497 31.067 43.9167 25.9427 43.9167 19.6509V18.1859L32.4992 22.6362C30.6208 23.3723 28.4066 23.3735 26.5271 22.6398L15.1017 18.1859ZM29.5092 33.1305C15.4216 33.1305 4 42.1667 4 53.3291V55.2256C4.00251 55.698 4.2414 56.1501 4.66447 56.483C5.08805 56.8159 5.66067 57.002 6.25695 57H52.7606C53.3538 56.998 53.922 56.8107 54.3416 56.4783C54.7611 56.1458 54.998 55.6956 55 55.2256V53.3291C55 42.1665 43.5961 33.1305 29.5088 33.1305L29.5092 33.1305Z" fill="#007E9E"/>
</svg>
